<svg width="443" height="403" viewBox="0 0 443 403" fill="none" xmlns="http://www.w3.org/2000/svg">
<path d="M221.01 402.625C343.07 402.625 442.02 396.909 442.02 389.857C442.02 382.805 343.07 377.089 221.01 377.089C98.9494 377.089 0 382.805 0 389.857C0 396.909 98.9494 402.625 221.01 402.625Z" fill="#F5F5F5"/>
<path d="M363.312 162.247H410.15V214.505C410.15 215.893 409.593 217.224 408.601 218.206C407.609 219.187 406.264 219.739 404.861 219.739H368.602C367.199 219.739 365.854 219.187 364.862 218.206C363.87 217.224 363.313 215.893 363.312 214.505V162.247Z" fill="black"/>
<path d="M362.833 162.675L365.113 164.266C365.614 164.612 366.211 164.798 366.823 164.798C367.434 164.798 368.031 164.612 368.532 164.266L369.068 163.882C369.57 163.536 370.166 163.35 370.778 163.35C371.389 163.35 371.986 163.536 372.488 163.882L373.023 164.266C373.525 164.612 374.122 164.798 374.733 164.798C375.345 164.798 375.942 164.612 376.443 164.266L376.99 163.882C377.492 163.536 378.088 163.35 378.7 163.35C379.312 163.35 379.908 163.536 380.41 163.882L380.946 164.266C381.447 164.612 382.044 164.798 382.655 164.798C383.267 164.798 383.864 164.612 384.365 164.266L384.901 163.882C385.402 163.536 385.999 163.35 386.611 163.35C387.222 163.35 387.819 163.536 388.321 163.882L388.868 164.266C389.369 164.612 389.966 164.798 390.577 164.798C391.189 164.798 391.786 164.612 392.287 164.266L392.823 163.882C393.324 163.536 393.921 163.35 394.533 163.35C395.144 163.35 395.741 163.536 396.243 163.882L396.79 164.266C397.29 164.615 397.887 164.803 398.5 164.803C399.112 164.803 399.709 164.615 400.209 164.266L400.757 163.882C401.258 163.536 401.855 163.35 402.466 163.35C403.078 163.35 403.675 163.536 404.176 163.882L404.712 164.266C405.213 164.612 405.81 164.798 406.422 164.798C407.033 164.798 407.63 164.612 408.132 164.266L410.411 162.675H362.833Z" fill="#263238"/>
<path opacity="0.7" d="M410.15 185.167C406.4 187.603 400.153 189.34 390.601 185.516L390.179 185.347C387.181 184.208 383.947 183.808 380.758 184.183C377.568 184.558 374.519 185.696 371.873 187.498C369.228 189.301 367.066 191.714 365.574 194.529C364.083 197.344 363.306 200.476 363.313 203.654V204.094C367.416 200.891 376.239 195.939 386.726 201.59L387.033 201.748C389.446 202.992 392.143 203.599 394.863 203.51C397.583 203.421 400.233 202.639 402.558 201.239C404.883 199.839 406.803 197.869 408.133 195.52C409.463 193.171 410.158 190.522 410.15 187.829V185.167Z" fill="white"/>
<path d="M371.816 194.089C370.174 194.182 368.531 193.934 366.992 193.361C365.453 192.788 364.052 191.902 362.879 190.761C355.162 182.719 361.739 162.969 361.967 162.123L363.107 162.382C363.039 162.574 356.462 182.516 363.825 190.175C364.874 191.189 366.126 191.975 367.5 192.482C368.874 192.989 370.34 193.206 371.804 193.119C390.897 193.119 399.093 162.461 399.161 162.157L400.301 162.348C398.733 167.849 396.518 173.149 393.701 178.14C387.763 188.573 380.171 194.089 371.816 194.089Z" fill="#263238"/>
<path d="M410.754 163.059H362.697C362.59 163.059 362.484 163.038 362.385 162.997C362.286 162.956 362.196 162.896 362.121 162.82C362.045 162.745 361.986 162.655 361.946 162.557C361.906 162.458 361.886 162.353 361.888 162.247C361.888 162.034 361.973 161.831 362.125 161.68C362.277 161.53 362.482 161.446 362.697 161.446H410.754C410.861 161.444 410.968 161.464 411.067 161.504C411.167 161.543 411.257 161.602 411.334 161.676C411.41 161.751 411.471 161.84 411.512 161.938C411.553 162.036 411.575 162.141 411.575 162.247C411.575 162.353 411.554 162.459 411.512 162.558C411.471 162.656 411.411 162.746 411.334 162.821C411.258 162.896 411.168 162.956 411.068 162.997C410.969 163.038 410.862 163.059 410.754 163.059Z" fill="#263238"/>
<path d="M221.34 23.9035L181.477 24.7917C180.011 24.8244 178.849 26.0273 178.882 27.4784L178.914 28.9105C178.947 30.3616 180.163 31.5115 181.629 31.4788L221.492 30.5905C222.958 30.5579 224.12 29.355 224.087 27.9039L224.055 26.4718C224.022 25.0207 222.806 23.8708 221.34 23.9035Z" fill="#263238"/>
<path opacity="0.1" d="M224.039 25.7726L178.866 26.7792L178.93 29.5871L224.103 28.5805L224.039 25.7726Z" fill="white"/>
<path d="M185.058 28.0538C185.081 28.7274 184.899 29.3924 184.538 29.9635C184.176 30.5346 183.65 30.9859 183.028 31.2594C182.405 31.5329 181.714 31.6162 181.044 31.4986C180.373 31.3811 179.753 31.068 179.263 30.5996C178.774 30.1311 178.436 29.5287 178.295 28.8694C178.154 28.2101 178.214 27.524 178.469 26.8991C178.725 26.2742 179.162 25.7389 179.727 25.3618C180.292 24.9848 180.957 24.7831 181.638 24.7827C182.526 24.7823 183.379 25.1232 184.017 25.7336C184.655 26.3441 185.028 27.1761 185.058 28.0538Z" fill="#263238"/>
<path d="M207.662 31.6069L186.711 30.0052C185.863 30.0232 185.02 29.8657 184.237 29.5427L181.274 28.5726C181.122 28.5263 180.996 28.4224 180.922 28.2838C180.849 28.1453 180.833 27.9834 180.88 27.8338C180.927 27.6843 181.032 27.5592 181.172 27.4862C181.312 27.4133 181.476 27.3983 181.627 27.4447L184.602 28.426C185.283 28.7083 186.018 28.8429 186.756 28.8208H187.759L207.753 30.3661C207.903 30.3804 208.042 30.452 208.139 30.5657C208.237 30.6793 208.287 30.8262 208.277 30.9752C208.288 31.0587 208.279 31.1434 208.252 31.2233C208.225 31.3031 208.181 31.376 208.122 31.4365C208.063 31.4971 207.991 31.5438 207.911 31.5733C207.832 31.6028 207.746 31.6142 207.662 31.6069Z" fill="black"/>
<path d="M227.405 27.1289C227.402 27.2569 227.356 27.3803 227.273 27.4787C227.19 27.5771 227.076 27.6447 226.949 27.6703L224.065 28.2568L211.652 30.806L209.372 31.2572L224.988 38.7581C225.139 38.7895 225.272 38.879 225.356 39.007C225.44 39.135 225.47 39.2909 225.438 39.4405C225.407 39.5901 225.316 39.7211 225.187 39.8046C225.057 39.8882 224.9 39.9175 224.749 39.886C224.662 39.8849 224.577 39.8657 224.498 39.8296L207.4 31.6068C207.294 31.5555 207.207 31.4722 207.151 31.3688C207.096 31.2654 207.075 31.1474 207.092 31.0316C207.087 31.0055 207.087 30.9787 207.092 30.9526C207.115 30.8516 207.167 30.7593 207.242 30.6872C207.317 30.615 207.411 30.5661 207.514 30.5466L224.031 27.1627V26.5874C224.029 26.3849 223.998 26.1836 223.939 25.9896L226.949 26.689C227.061 26.7076 227.165 26.7597 227.246 26.8383C227.328 26.9169 227.383 27.0183 227.405 27.1289Z" fill="black"/>
<path d="M345.985 98.6413C346.319 98.6288 346.639 98.5067 346.895 98.2943C347.151 98.0818 347.328 97.791 347.399 97.4678C347.47 97.1446 347.429 96.8073 347.285 96.5092C347.14 96.2111 346.899 95.9691 346.6 95.8214L216.655 33.8515C216.297 33.6825 215.885 33.6612 215.511 33.7923C215.137 33.9235 214.831 34.1963 214.66 34.5508C214.49 34.9053 214.468 35.3124 214.601 35.6826C214.733 36.0528 215.009 36.3557 215.367 36.5248L345.312 98.4947C345.523 98.591 345.753 98.6411 345.985 98.6413Z" fill="#263238"/>
<path d="M242.393 59.3433L242.336 58.441L248.959 62.2534C246.103 64.0826 242.664 64.8018 239.304 64.2725C237.472 64.0008 235.726 63.3221 234.198 62.2873C233.42 61.7725 232.718 61.1538 232.112 60.4487C231.799 60.0967 231.517 59.7194 231.268 59.3208C231.021 58.9865 230.804 58.6317 230.618 58.2605C229.388 55.822 228.539 53.2131 228.099 50.5227C227.673 48.0043 227.512 45.4489 227.621 42.8977L230.881 42.4465C231.758 44.5558 232.716 46.7215 233.764 48.6841C234.705 50.5544 235.89 52.2949 237.287 53.8614C237.401 54.0068 237.535 54.1358 237.686 54.245C237.797 54.3415 237.919 54.4248 238.05 54.4931C238.283 54.6335 238.527 54.7542 238.78 54.854C239.315 55.0421 239.876 55.1486 240.444 55.1699C241.896 55.143 243.333 54.8761 244.696 54.3803L251.387 52.1244V58.159V59.0613L242.393 59.3433Z" fill="#B55B52"/>
<path d="M295.842 70.0363L290.599 72.969L288.752 65.6373L294.987 63.7649L295.842 70.0363Z" fill="#B55B52"/>
<path d="M289.049 33.8515C289.049 33.8515 296.595 33.0281 298.567 42.7511C300.539 52.4741 306.272 63.2912 299.171 69.3144L295.102 71.8975C293.09 69.6683 291.671 66.9778 290.975 64.0694L293.255 62.3888L291.283 55.7113C291.283 55.7113 285.983 36.1977 289.049 33.8515Z" fill="black"/>
<path opacity="0.5" d="M289.049 33.8515C289.049 33.8515 296.595 33.0281 298.567 42.7511C300.539 52.4741 306.272 63.2912 299.171 69.3144L295.102 71.8975C293.09 69.6683 291.671 66.9778 290.975 64.0694L293.255 62.3888L291.283 55.7113C291.283 55.7113 285.983 36.1977 289.049 33.8515Z" fill="white"/>
<path d="M294.474 195.352L302.203 205.143C302.394 205.403 302.498 205.717 302.498 206.04C302.498 206.362 302.394 206.676 302.203 206.936C301.333 208.194 300.393 209.403 299.387 210.557C297.975 211.8 296.491 212.96 294.942 214.031C294.679 214.228 294.488 214.503 294.397 214.817C294.307 215.13 294.322 215.464 294.44 215.768C294.576 216.133 294.853 216.431 295.209 216.595C295.566 216.76 295.973 216.779 296.344 216.648L313.647 210.14C313.846 210.062 314.026 209.942 314.173 209.788C314.321 209.635 314.434 209.452 314.503 209.251C314.572 209.051 314.597 208.838 314.575 208.627C314.553 208.416 314.485 208.213 314.377 208.03L304.118 190.073C303.936 189.744 303.633 189.498 303.272 189.384C302.911 189.271 302.52 189.299 302.18 189.464L294.907 193.096C294.713 193.202 294.545 193.349 294.415 193.526C294.284 193.704 294.195 193.908 294.154 194.123C294.112 194.339 294.12 194.561 294.175 194.773C294.231 194.986 294.333 195.183 294.474 195.352Z" fill="black"/>
<path d="M291.876 81.7332L271.164 82.9514C271.164 82.9514 271.027 143.624 272.817 158.874C274.424 172.568 290.485 187.818 293.722 195.16C293.829 195.49 294.047 195.774 294.339 195.964C294.632 196.155 294.981 196.242 295.329 196.209L304.448 190.84C305.93 189.532 303.582 188.438 303.206 187.739C300.527 182.753 294.566 173.605 288.695 157.363C287.487 154.035 288.137 125.633 289.083 115.493C289.858 106.661 296.709 94.3438 291.876 81.7332Z" fill="#263238"/>
<path opacity="0.2" d="M277.502 97.2314C277.441 112.818 275.509 128.342 271.745 143.478C271.266 134.319 271.335 110.654 271.244 101.382L273.774 97.3103L277.502 97.2314Z" fill="black"/>
<path d="M252.481 198.138L253.758 211.121C253.786 211.391 253.737 211.663 253.619 211.908C253.5 212.153 253.316 212.361 253.085 212.508C251.586 213.491 250.038 214.399 248.446 215.227C246.547 215.913 244.615 216.504 242.656 216.998C242.335 217.086 242.054 217.279 241.857 217.545C241.661 217.811 241.561 218.135 241.573 218.464C241.579 218.851 241.739 219.22 242.019 219.49C242.299 219.761 242.675 219.911 243.066 219.908L262.239 219.479C262.623 219.465 262.986 219.304 263.254 219.031C263.521 218.758 263.672 218.393 263.675 218.013L263.789 198.251C263.798 197.867 263.653 197.495 263.387 197.216C263.12 196.937 262.752 196.774 262.364 196.762L253.986 196.514C253.776 196.511 253.567 196.553 253.375 196.635C253.182 196.718 253.008 196.84 252.866 196.993C252.724 197.146 252.617 197.328 252.55 197.525C252.484 197.722 252.46 197.931 252.481 198.138Z" fill="black"/>
<path d="M258.18 82.9176C258.18 82.9176 249.198 142.914 248.435 154.689C247.739 165.36 250.612 190.028 251.136 197.879C251.157 198.216 251.308 198.532 251.559 198.761C251.809 198.99 252.14 199.115 252.481 199.108L263.538 198.86C263.882 198.851 264.208 198.709 264.447 198.464C264.686 198.22 264.818 197.892 264.815 197.552C264.815 191.664 264.735 177.508 263.857 163.183C263.532 157.643 264.169 152.088 265.738 146.76C267.767 139.868 271.528 124.02 274.857 113.812C277.467 105.747 279.838 103.288 280.556 97.1637C281.582 88.0385 279.017 82.5002 279.017 82.5002L258.18 82.9176Z" fill="#263238"/>
<path d="M281.993 32.1032C281.993 32.1032 277.844 31.7761 277.718 24.2075C277.718 24.2075 273.854 22.5832 271.438 24.8617C269.021 27.1402 273.854 32.2385 270.845 34.4944C267.836 36.7503 281.993 32.1032 281.993 32.1032Z" fill="#B55B52"/>
<path d="M256.984 36.13C256.984 36.13 253.462 33.874 247.774 44.0257L241.277 54.1773H237.937C237.937 54.1773 235.657 60.5164 238.165 64.1484C238.165 64.1484 243.944 70.5777 257.372 53.3539L259.97 42.2322L256.984 36.13Z" fill="black"/>
<path opacity="0.5" d="M256.984 36.13C256.984 36.13 253.462 33.874 247.774 44.0257L241.277 54.1773H237.937C237.937 54.1773 235.657 60.5164 238.165 64.1484C238.165 64.1484 243.944 70.5777 257.372 53.3539L259.97 42.2322L256.984 36.13Z" fill="white"/>
<path d="M292.935 83.3236C292.935 83.3236 270.229 87.5873 257.599 84.1132C257.599 84.1132 259.799 78.7554 254.943 58.0349C254.943 58.0349 259.081 46.9583 254.442 36.0623C254.442 36.0623 271.859 30.4225 290.336 33.2424C291.614 39.6186 292.445 46.0746 292.821 52.5643C293.346 61.9714 294.178 61.0239 292.935 83.3236Z" fill="black"/>
<path d="M283.236 33.9756C283.236 33.9756 283.999 28.9674 275.473 30.0277C266.947 31.088 265.511 35.4532 265.511 35.4532L283.236 33.9756Z" fill="black"/>
<path d="M293.209 78.5975C284.717 79.693 276.17 80.3331 267.608 80.515C264.553 80.5827 261.327 80.594 257.999 80.515C257.999 79.4435 257.942 78.2591 257.885 77.0522C269.735 77.2711 281.585 76.6075 293.335 75.067C293.301 76.1837 293.255 77.3568 293.209 78.5975Z" fill="#263238"/>
<path opacity="0.8" d="M293.255 78.5975C284.746 79.6873 276.185 80.3274 267.608 80.515C264.553 80.5827 261.327 80.594 257.999 80.515C257.999 79.4435 257.942 78.2591 257.885 77.0522C269.75 77.2705 281.615 76.6069 293.38 75.067C293.346 76.1837 293.312 77.3568 293.255 78.5975Z" fill="white"/>
<path d="M267.744 66.2803C267.675 57.9334 266.604 40.0214 261.816 35.3968C261.436 34.9935 260.951 34.7009 260.414 34.5508C261.748 34.2689 263.276 33.9756 264.974 33.6936C267.687 37.0211 269.533 43.6083 270.537 53.3426C271.072 58.6553 271.209 63.4942 271.243 66.0772C276.993 65.6815 282.718 65.0001 288.398 64.0356C288.216 59.7268 287.646 47.2967 286.62 41.2171C286.193 38.291 285.456 35.4177 284.42 32.6446C285.697 32.7235 286.973 32.8363 288.273 32.9943C289.057 35.5083 289.655 38.0756 290.063 40.6756C291.088 46.7892 291.658 58.6553 291.864 63.4152L293.505 63.0656C293.505 64.1935 293.505 65.3215 293.505 66.6186C283.53 68.6277 273.395 69.7601 263.219 70.0025C261.212 70.0025 259.161 70.0025 257.052 70.0025C256.904 68.8745 256.744 67.7466 256.55 66.5284C260.483 66.5397 264.21 66.4833 267.744 66.2803Z" fill="#263238"/>
<path opacity="0.8" d="M267.745 66.2803C267.676 57.9334 266.605 40.0214 261.817 35.3968C261.437 34.9935 260.952 34.7009 260.415 34.5508C261.749 34.2689 263.277 33.9756 264.975 33.6936C267.688 37.0211 269.534 43.6083 270.538 53.3426C271.073 58.6553 271.21 63.4942 271.244 66.0772C276.994 65.6815 282.719 65.0001 288.399 64.0356C288.217 59.7268 287.647 47.2967 286.621 41.2171C286.194 38.291 285.457 35.4177 284.421 32.6446C285.698 32.7235 286.974 32.8363 288.274 32.9943C289.058 35.5083 289.656 38.0756 290.063 40.6756C291.089 46.7892 291.659 58.6553 291.865 63.4152L293.483 63.0656C293.483 64.1935 293.54 65.3215 293.54 66.6186C283.565 68.6277 273.43 69.7601 263.254 70.0025C261.248 70.0025 259.196 70.0025 257.087 70.0025C256.939 68.8745 256.779 67.7466 256.585 66.5284C260.484 66.5397 264.211 66.4833 267.745 66.2803Z" fill="white"/>
<path d="M285.823 51.8311L272.714 53.2975L273.125 61.5428L286.233 59.9411L285.823 51.8311Z" fill="white"/>
<path d="M262.205 15.6576C262.205 16.1426 262.398 16.5486 262.718 16.5712C263.037 16.5938 263.344 16.199 263.356 15.7365C263.367 15.2741 263.162 14.8454 262.854 14.8342C262.547 14.8229 262.25 15.1838 262.205 15.6576Z" fill="#263238"/>
<path d="M263.823 16.4359L261.737 20.3386C262.204 20.5716 262.719 20.693 263.242 20.693C263.765 20.693 264.28 20.5716 264.747 20.3386L263.823 16.4359Z" fill="#A02724"/>
<path d="M264.701 13.5934C264.663 13.6099 264.623 13.6184 264.581 13.6184C264.54 13.6184 264.499 13.6099 264.462 13.5934C264.174 13.4594 263.859 13.3955 263.541 13.4073C263.224 13.4191 262.914 13.5061 262.638 13.6611C262.61 13.6801 262.579 13.6934 262.546 13.7003C262.514 13.7072 262.48 13.7075 262.447 13.7012C262.414 13.6949 262.382 13.6821 262.354 13.6636C262.327 13.6451 262.303 13.6212 262.284 13.5934C262.25 13.5361 262.239 13.4679 262.254 13.4027C262.268 13.3376 262.308 13.2807 262.364 13.2437C262.707 13.046 263.093 12.9316 263.489 12.9101C263.885 12.8885 264.281 12.9603 264.644 13.1197C264.676 13.1319 264.706 13.1506 264.73 13.1746C264.755 13.1986 264.774 13.2275 264.787 13.2592C264.8 13.291 264.806 13.3251 264.805 13.3593C264.804 13.3935 264.796 13.4271 264.781 13.458C264.768 13.5097 264.74 13.5566 264.701 13.5934Z" fill="#263238"/>
<path d="M281.058 13.7062C280.91 20.0905 280.99 22.7976 277.867 26.1927C273.022 29.7119 265.26 29.7232 263.481 23.4179C261.874 17.7781 262.341 8.28076 268.588 5.47215C269.641 4.99308 270.779 4.72422 271.937 4.68098C273.095 4.63773 274.25 4.82096 275.336 5.22015C276.423 5.61934 277.419 6.22666 278.268 7.00733C279.117 7.78801 279.801 8.7267 280.283 9.76966C280.851 11.0031 281.117 12.3519 281.058 13.7062Z" fill="#B55B52"/>
<path d="M267.266 18.2067C267.266 18.2067 266.057 13.537 267.129 12.206C268.2 10.875 267.562 10.593 266.354 9.47637C265.145 8.35969 263.641 7.49117 265.214 5.29165C271.654 -4.10422 283.965 2.66352 284.523 9.17182C284.728 11.6082 283.235 16.402 283.133 16.6953C281.919 20.1156 280.16 23.3218 277.923 26.1927C276.828 26.4209 275.7 26.4477 274.595 26.2716C274.595 26.2716 268.348 21.0041 267.266 18.2067Z" fill="#263238"/>
<path d="M267.744 15.8042C267.356 16.3256 267.078 16.9186 266.925 17.5482C266.772 18.1777 266.748 18.8312 266.855 19.4701C267.14 21.1733 268.873 21.3086 270.115 20.2371C271.357 19.1655 272.395 17.2141 271.517 15.7252C271.302 15.4248 271.015 15.1811 270.683 15.0154C270.35 14.8498 269.982 14.7673 269.609 14.775C269.237 14.7828 268.873 14.8807 268.547 15.0601C268.222 15.2395 267.946 15.495 267.744 15.8042Z" fill="#B55B52"/>
<path d="M284.284 11.2134C284.322 13.1274 283.908 15.0237 283.076 16.7517C277.787 16.2779 273.603 14.1912 272.498 11.4841L284.284 11.2134Z" fill="#263238"/>
<path opacity="0.6" d="M284.284 11.2134C284.322 13.1274 283.908 15.0237 283.076 16.7517C277.787 16.2779 273.603 14.1912 272.498 11.4841L284.284 11.2134Z" fill="white"/>
<path d="M284.147 13.2437C284.147 13.2437 283.828 14.7777 283.657 15.2289C283.657 15.2289 281.936 16.2215 276.897 13.2212" fill="#263238"/>
<path d="M262.114 10.7171C262.241 7.86134 263.466 5.16161 265.539 3.16986C267.611 1.17811 270.373 0.0447694 273.262 0.00154367C276.148 -0.0450801 278.949 0.965866 281.127 2.83991C283.305 4.71395 284.705 7.31872 285.059 10.1531H286.199C286.434 10.1786 286.651 10.2888 286.808 10.4626C286.965 10.6364 287.052 10.8616 287.052 11.095C287.052 11.3284 286.965 11.5536 286.808 11.7274C286.651 11.9012 286.434 12.0114 286.199 12.0368L257.486 12.7023C256.255 12.7249 260.586 10.751 262.114 10.7171Z" fill="black"/>
<path opacity="0.1" d="M285.059 10.1983L262.113 10.7059C262.158 9.5619 262.334 8.42669 262.638 7.32198L283.896 6.84824C284.493 7.88255 284.888 9.01913 285.059 10.1983Z" fill="black"/>
<path d="M228.156 44.1272L231.496 44.4881C231.423 43.3113 231.113 42.1608 230.584 41.1042C229.798 39.8748 229.444 39.2657 229.285 38.9611C229.19 38.7803 229.032 38.6399 228.84 38.5663L226.412 37.6076C226.257 37.5432 226.087 37.5236 225.921 37.5512C225.755 37.5787 225.601 37.6523 225.475 37.7633C225.35 37.8743 225.259 38.0182 225.213 38.1784C225.167 38.3385 225.168 38.5082 225.216 38.6678C225.496 39.3855 225.609 40.1567 225.546 40.9238L228.156 44.1272Z" fill="#B55B52"/>
<path d="M355.31 382.672C355.116 382.676 354.923 382.645 354.74 382.582L12.0602 263.018C11.6324 262.869 11.2822 262.557 11.0866 262.152C10.891 261.747 10.866 261.282 11.0172 260.858C11.1683 260.435 11.4832 260.088 11.8926 259.895C12.302 259.701 12.7723 259.677 13.2 259.826L355.868 379.39C356.244 379.525 356.561 379.786 356.762 380.128C356.964 380.47 357.038 380.871 356.972 381.261C356.905 381.651 356.702 382.006 356.399 382.264C356.095 382.522 355.71 382.666 355.31 382.672Z" fill="black"/>
<path d="M12.6298 380.348C12.2231 380.353 11.828 380.214 11.5156 379.956C11.2031 379.698 10.9938 379.339 10.9252 378.942C10.8565 378.545 10.933 378.137 11.141 377.792C11.349 377.446 11.6748 377.184 12.0598 377.055L351.742 258.54C352.169 258.391 352.64 258.416 353.049 258.609C353.458 258.803 353.773 259.149 353.924 259.572C354.076 259.996 354.051 260.461 353.855 260.866C353.659 261.271 353.309 261.583 352.882 261.733L13.1997 380.247C13.0174 380.314 12.8244 380.348 12.6298 380.348Z" fill="black"/>
<path opacity="0.4" d="M355.868 379.39L185.776 320.037L352.87 261.732C353.082 261.658 353.277 261.544 353.444 261.395C353.611 261.247 353.747 261.067 353.844 260.866C353.941 260.666 353.997 260.448 354.008 260.226C354.02 260.004 353.988 259.782 353.913 259.572C353.838 259.363 353.722 259.17 353.572 259.005C353.422 258.839 353.24 258.705 353.038 258.609C352.835 258.513 352.615 258.458 352.391 258.446C352.167 258.434 351.942 258.466 351.73 258.54L180.635 318.243L13.1997 259.826C12.7719 259.677 12.3016 259.701 11.8923 259.895C11.4829 260.088 11.168 260.435 11.0169 260.858C10.8657 261.282 10.8907 261.747 11.0863 262.152C11.2819 262.557 11.6321 262.869 12.0598 263.018L175.495 320.037L12.0598 377.055C11.6748 377.184 11.349 377.446 11.141 377.792C10.933 378.137 10.8565 378.545 10.9252 378.942C10.9938 379.339 11.2031 379.698 11.5156 379.956C11.828 380.214 12.2231 380.353 12.6298 380.348C12.8244 380.348 13.0174 380.314 13.1997 380.247L180.635 321.83L354.74 382.582C354.923 382.645 355.116 382.676 355.309 382.672C355.709 382.666 356.095 382.522 356.398 382.264C356.702 382.006 356.905 381.652 356.971 381.261C357.038 380.871 356.964 380.47 356.762 380.128C356.56 379.786 356.244 379.525 355.868 379.39Z" fill="white"/>
<path d="M351.217 392.113C350.613 392.113 350.033 391.875 349.605 391.452C349.178 391.029 348.938 390.455 348.938 389.857V220.776C348.938 220.178 349.178 219.604 349.605 219.181C350.033 218.758 350.613 218.521 351.217 218.521C351.822 218.521 352.402 218.758 352.829 219.181C353.257 219.604 353.497 220.178 353.497 220.776V389.857C353.497 390.455 353.257 391.029 352.829 391.452C352.402 391.875 351.822 392.113 351.217 392.113Z" fill="black"/>
<g opacity="0.4">
<path d="M351.217 392.113C350.613 392.113 350.033 391.875 349.605 391.452C349.178 391.029 348.938 390.455 348.938 389.857V220.776C348.938 220.178 349.178 219.604 349.605 219.181C350.033 218.758 350.613 218.521 351.217 218.521C351.822 218.521 352.402 218.758 352.829 219.181C353.257 219.604 353.497 220.178 353.497 220.776V389.857C353.497 390.455 353.257 391.029 352.829 391.452C352.402 391.875 351.822 392.113 351.217 392.113Z" fill="white"/>
</g>
<path d="M437.585 226.777H351.217C350.613 226.777 350.033 226.539 349.605 226.116C349.178 225.693 348.938 225.12 348.938 224.521C348.938 223.923 349.178 223.349 349.605 222.926C350.033 222.503 350.613 222.265 351.217 222.265H437.585C438.19 222.265 438.77 222.503 439.197 222.926C439.625 223.349 439.865 223.923 439.865 224.521C439.865 225.12 439.625 225.693 439.197 226.116C438.77 226.539 438.19 226.777 437.585 226.777Z" fill="black"/>
<path d="M437.585 265.895H351.217C350.613 265.895 350.033 265.657 349.605 265.234C349.178 264.811 348.938 264.237 348.938 263.639C348.938 263.04 349.178 262.467 349.605 262.044C350.033 261.621 350.613 261.383 351.217 261.383H437.585C438.19 261.383 438.77 261.621 439.197 262.044C439.625 262.467 439.865 263.04 439.865 263.639C439.865 264.237 439.625 264.811 439.197 265.234C438.77 265.657 438.19 265.895 437.585 265.895Z" fill="black"/>
<path d="M437.585 305.001H351.217C350.613 305.001 350.033 304.763 349.605 304.34C349.178 303.917 348.938 303.343 348.938 302.745C348.938 302.147 349.178 301.573 349.605 301.15C350.033 300.727 350.613 300.489 351.217 300.489H437.585C438.19 300.489 438.77 300.727 439.197 301.15C439.625 301.573 439.865 302.147 439.865 302.745C439.865 303.343 439.625 303.917 439.197 304.34C438.77 304.763 438.19 305.001 437.585 305.001Z" fill="black"/>
<path d="M437.585 344.118H351.217C350.613 344.118 350.033 343.881 349.605 343.458C349.178 343.035 348.938 342.461 348.938 341.863C348.938 341.264 349.178 340.69 349.605 340.267C350.033 339.844 350.613 339.607 351.217 339.607H437.585C438.19 339.607 438.77 339.844 439.197 340.267C439.625 340.69 439.865 341.264 439.865 341.863C439.865 342.461 439.625 343.035 439.197 343.458C438.77 343.881 438.19 344.118 437.585 344.118Z" fill="black"/>
<path d="M437.585 383.236H351.217C350.613 383.236 350.033 382.998 349.605 382.575C349.178 382.152 348.938 381.578 348.938 380.98C348.938 380.382 349.178 379.808 349.605 379.385C350.033 378.962 350.613 378.724 351.217 378.724H437.585C438.19 378.724 438.77 378.962 439.197 379.385C439.625 379.808 439.865 380.382 439.865 380.98C439.865 381.578 439.625 382.152 439.197 382.575C438.77 382.998 438.19 383.236 437.585 383.236Z" fill="black"/>
<path d="M437.585 265.895H351.217C350.613 265.895 350.033 265.657 349.605 265.234C349.178 264.811 348.938 264.237 348.938 263.639C348.938 263.04 349.178 262.467 349.605 262.044C350.033 261.621 350.613 261.383 351.217 261.383H437.585C438.19 261.383 438.77 261.621 439.197 262.044C439.625 262.467 439.865 263.04 439.865 263.639C439.865 264.237 439.625 264.811 439.197 265.234C438.77 265.657 438.19 265.895 437.585 265.895Z" fill="black"/>
<path d="M437.585 305.001H351.217C350.613 305.001 350.033 304.763 349.605 304.34C349.178 303.917 348.938 303.343 348.938 302.745C348.938 302.147 349.178 301.573 349.605 301.15C350.033 300.727 350.613 300.489 351.217 300.489H437.585C438.19 300.489 438.77 300.727 439.197 301.15C439.625 301.573 439.865 302.147 439.865 302.745C439.865 303.343 439.625 303.917 439.197 304.34C438.77 304.763 438.19 305.001 437.585 305.001Z" fill="black"/>
<path d="M437.585 344.118H351.217C350.613 344.118 350.033 343.881 349.605 343.458C349.178 343.035 348.938 342.461 348.938 341.863C348.938 341.264 349.178 340.69 349.605 340.267C350.033 339.844 350.613 339.607 351.217 339.607H437.585C438.19 339.607 438.77 339.844 439.197 340.267C439.625 340.69 439.865 341.264 439.865 341.863C439.865 342.461 439.625 343.035 439.197 343.458C438.77 343.881 438.19 344.118 437.585 344.118Z" fill="black"/>
<path d="M437.585 383.236H351.217C350.613 383.236 350.033 382.998 349.605 382.575C349.178 382.152 348.938 381.578 348.938 380.98C348.938 380.382 349.178 379.808 349.605 379.385C350.033 378.962 350.613 378.724 351.217 378.724H437.585C438.19 378.724 438.77 378.962 439.197 379.385C439.625 379.808 439.865 380.382 439.865 380.98C439.865 381.578 439.625 382.152 439.197 382.575C438.77 382.998 438.19 383.236 437.585 383.236Z" fill="black"/>
<g opacity="0.2">
<path d="M437.585 226.777H351.217C350.613 226.777 350.033 226.539 349.605 226.116C349.178 225.693 348.938 225.12 348.938 224.521C348.938 223.923 349.178 223.349 349.605 222.926C350.033 222.503 350.613 222.265 351.217 222.265H437.585C438.19 222.265 438.77 222.503 439.197 222.926C439.625 223.349 439.865 223.923 439.865 224.521C439.865 225.12 439.625 225.693 439.197 226.116C438.77 226.539 438.19 226.777 437.585 226.777Z" fill="white"/>
<path d="M437.585 265.895H351.217C350.613 265.895 350.033 265.657 349.605 265.234C349.178 264.811 348.938 264.237 348.938 263.639C348.938 263.04 349.178 262.467 349.605 262.044C350.033 261.621 350.613 261.383 351.217 261.383H437.585C438.19 261.383 438.77 261.621 439.197 262.044C439.625 262.467 439.865 263.04 439.865 263.639C439.865 264.237 439.625 264.811 439.197 265.234C438.77 265.657 438.19 265.895 437.585 265.895Z" fill="white"/>
<path d="M437.585 305.001H351.217C350.613 305.001 350.033 304.763 349.605 304.34C349.178 303.917 348.938 303.343 348.938 302.745C348.938 302.147 349.178 301.573 349.605 301.15C350.033 300.727 350.613 300.489 351.217 300.489H437.585C438.19 300.489 438.77 300.727 439.197 301.15C439.625 301.573 439.865 302.147 439.865 302.745C439.865 303.343 439.625 303.917 439.197 304.34C438.77 304.763 438.19 305.001 437.585 305.001Z" fill="white"/>
<path d="M437.585 344.118H351.217C350.613 344.118 350.033 343.881 349.605 343.458C349.178 343.035 348.938 342.461 348.938 341.863C348.938 341.264 349.178 340.69 349.605 340.267C350.033 339.844 350.613 339.607 351.217 339.607H437.585C438.19 339.607 438.77 339.844 439.197 340.267C439.625 340.69 439.865 341.264 439.865 341.863C439.865 342.461 439.625 343.035 439.197 343.458C438.77 343.881 438.19 344.118 437.585 344.118Z" fill="white"/>
<path d="M437.585 383.236H351.217C350.613 383.236 350.033 382.998 349.605 382.575C349.178 382.152 348.938 381.578 348.938 380.98C348.938 380.382 349.178 379.808 349.605 379.385C350.033 378.962 350.613 378.724 351.217 378.724H437.585C438.19 378.724 438.77 378.962 439.197 379.385C439.625 379.808 439.865 380.382 439.865 380.98C439.865 381.578 439.625 382.152 439.197 382.575C438.77 382.998 438.19 383.236 437.585 383.236Z" fill="white"/>
<path d="M437.585 265.895H351.217C350.613 265.895 350.033 265.657 349.605 265.234C349.178 264.811 348.938 264.237 348.938 263.639C348.938 263.04 349.178 262.467 349.605 262.044C350.033 261.621 350.613 261.383 351.217 261.383H437.585C438.19 261.383 438.77 261.621 439.197 262.044C439.625 262.467 439.865 263.04 439.865 263.639C439.865 264.237 439.625 264.811 439.197 265.234C438.77 265.657 438.19 265.895 437.585 265.895Z" fill="white"/>
<path d="M437.585 305.001H351.217C350.613 305.001 350.033 304.763 349.605 304.34C349.178 303.917 348.938 303.343 348.938 302.745C348.938 302.147 349.178 301.573 349.605 301.15C350.033 300.727 350.613 300.489 351.217 300.489H437.585C438.19 300.489 438.77 300.727 439.197 301.15C439.625 301.573 439.865 302.147 439.865 302.745C439.865 303.343 439.625 303.917 439.197 304.34C438.77 304.763 438.19 305.001 437.585 305.001Z" fill="white"/>
<path d="M437.585 344.118H351.217C350.613 344.118 350.033 343.881 349.605 343.458C349.178 343.035 348.938 342.461 348.938 341.863C348.938 341.264 349.178 340.69 349.605 340.267C350.033 339.844 350.613 339.607 351.217 339.607H437.585C438.19 339.607 438.77 339.844 439.197 340.267C439.625 340.69 439.865 341.264 439.865 341.863C439.865 342.461 439.625 343.035 439.197 343.458C438.77 343.881 438.19 344.118 437.585 344.118Z" fill="white"/>
<path d="M437.585 383.236H351.217C350.613 383.236 350.033 382.998 349.605 382.575C349.178 382.152 348.938 381.578 348.938 380.98C348.938 380.382 349.178 379.808 349.605 379.385C350.033 378.962 350.613 378.724 351.217 378.724H437.585C438.19 378.724 438.77 378.962 439.197 379.385C439.625 379.808 439.865 380.382 439.865 380.98C439.865 381.578 439.625 382.152 439.197 382.575C438.77 382.998 438.19 383.236 437.585 383.236Z" fill="white"/>
</g>
<path d="M437.586 392.113C436.981 392.113 436.401 391.875 435.974 391.452C435.546 391.029 435.306 390.455 435.306 389.857V220.776C435.306 220.178 435.546 219.604 435.974 219.181C436.401 218.758 436.981 218.521 437.586 218.521C438.191 218.521 438.77 218.758 439.198 219.181C439.625 219.604 439.866 220.178 439.866 220.776V389.857C439.866 390.455 439.625 391.029 439.198 391.452C438.77 391.875 438.191 392.113 437.586 392.113Z" fill="black"/>
<path d="M437.585 225.164H351.217C350.613 225.164 350.033 224.926 349.605 224.503C349.178 224.08 348.938 223.507 348.938 222.908C348.938 222.31 349.178 221.736 349.605 221.313C350.033 220.89 350.613 220.652 351.217 220.652H437.585C438.19 220.652 438.77 220.89 439.197 221.313C439.625 221.736 439.865 222.31 439.865 222.908C439.865 223.507 439.625 224.08 439.197 224.503C438.77 224.926 438.19 225.164 437.585 225.164Z" fill="black"/>
<path d="M11.5583 392.113C10.9537 392.113 10.3738 391.875 9.94628 391.452C9.51875 391.029 9.27856 390.455 9.27856 389.857V223.134C9.27856 222.536 9.51875 221.962 9.94628 221.539C10.3738 221.116 10.9537 220.878 11.5583 220.878C12.1629 220.878 12.7428 221.116 13.1703 221.539C13.5979 221.962 13.8381 222.536 13.8381 223.134V389.857C13.8381 390.455 13.5979 391.029 13.1703 391.452C12.7428 391.875 12.1629 392.113 11.5583 392.113Z" fill="black"/>
<g opacity="0.2">
<path d="M11.5583 392.113C10.9537 392.113 10.3738 391.875 9.94628 391.452C9.51875 391.029 9.27856 390.455 9.27856 389.857V223.134C9.27856 222.536 9.51875 221.962 9.94628 221.539C10.3738 221.116 10.9537 220.878 11.5583 220.878C12.1629 220.878 12.7428 221.116 13.1703 221.539C13.5979 221.962 13.8381 222.536 13.8381 223.134V389.857C13.8381 390.455 13.5979 391.029 13.1703 391.452C12.7428 391.875 12.1629 392.113 11.5583 392.113Z" fill="white"/>
</g>
<path d="M353.497 75.5069V219.705H348.938V75.5069C348.938 74.9086 349.178 74.3348 349.605 73.9118C350.033 73.4887 350.613 73.251 351.217 73.251C351.822 73.251 352.402 73.4887 352.829 73.9118C353.257 74.3348 353.497 74.9086 353.497 75.5069Z" fill="black"/>
<path opacity="0.4" d="M353.497 75.5069V219.705H348.938V75.5069C348.938 74.9086 349.178 74.3348 349.605 73.9118C350.033 73.4887 350.613 73.251 351.217 73.251C351.822 73.251 352.402 73.4887 352.829 73.9118C353.257 74.3348 353.497 74.9086 353.497 75.5069Z" fill="white"/>
<path d="M437.585 84.4404H351.217C350.613 84.4404 350.033 84.2027 349.605 83.7796C349.178 83.3565 348.938 82.7827 348.938 82.1844C348.938 81.5861 349.178 81.0123 349.605 80.5893C350.033 80.1662 350.613 79.9285 351.217 79.9285H437.585C438.19 79.9285 438.77 80.1662 439.197 80.5893C439.625 81.0123 439.865 81.5861 439.865 82.1844C439.865 82.7827 439.625 83.3565 439.197 83.7796C438.77 84.2027 438.19 84.4404 437.585 84.4404Z" fill="black"/>
<path d="M437.585 153.595H351.217C350.613 153.595 350.033 153.358 349.605 152.935C349.178 152.512 348.938 151.938 348.938 151.339C348.938 150.741 349.178 150.167 349.605 149.744C350.033 149.321 350.613 149.084 351.217 149.084H437.585C438.19 149.084 438.77 149.321 439.197 149.744C439.625 150.167 439.865 150.741 439.865 151.339C439.865 151.938 439.625 152.512 439.197 152.935C438.77 153.358 438.19 153.595 437.585 153.595Z" fill="black"/>
<g opacity="0.2">
<path d="M437.585 84.4404H351.217C350.613 84.4404 350.033 84.2027 349.605 83.7796C349.178 83.3565 348.938 82.7827 348.938 82.1844C348.938 81.5861 349.178 81.0123 349.605 80.5893C350.033 80.1662 350.613 79.9285 351.217 79.9285H437.585C438.19 79.9285 438.77 80.1662 439.197 80.5893C439.625 81.0123 439.865 81.5861 439.865 82.1844C439.865 82.7827 439.625 83.3565 439.197 83.7796C438.77 84.2027 438.19 84.4404 437.585 84.4404Z" fill="white"/>
</g>
<g opacity="0.2">
<path d="M437.585 153.595H351.217C350.613 153.595 350.033 153.358 349.605 152.935C349.178 152.512 348.938 151.938 348.938 151.339C348.938 150.741 349.178 150.167 349.605 149.744C350.033 149.321 350.613 149.084 351.217 149.084H437.585C438.19 149.084 438.77 149.321 439.197 149.744C439.625 150.167 439.865 150.741 439.865 151.339C439.865 151.938 439.625 152.512 439.197 152.935C438.77 153.358 438.19 153.595 437.585 153.595Z" fill="white"/>
</g>
<path d="M353.167 90.2268H298.099C298.064 89.7946 297.865 89.3915 297.543 89.0976C297.221 88.8036 296.799 88.6404 296.361 88.6404C295.923 88.6404 295.501 88.8036 295.179 89.0976C294.857 89.3915 294.658 89.7946 294.623 90.2268H78.5258C78.4464 89.8359 78.2327 89.4843 77.921 89.2317C77.6093 88.9791 77.2189 88.8411 76.816 88.8411C76.4131 88.8411 76.0227 88.9791 75.711 89.2317C75.3993 89.4843 75.1856 89.8359 75.1062 90.2268H9.90552V141.684H75.0036C75.083 142.075 75.2967 142.427 75.6084 142.679C75.9201 142.932 76.3105 143.07 76.7134 143.07C77.1163 143.07 77.5068 142.932 77.8184 142.679C78.1301 142.427 78.3438 142.075 78.4232 141.684H294.623C294.658 142.116 294.857 142.519 295.179 142.813C295.501 143.107 295.923 143.27 296.361 143.27C296.799 143.27 297.221 143.107 297.543 142.813C297.865 142.519 298.064 142.116 298.099 141.684H353.167V90.2268ZM13.3821 138.3V93.6107H75.0036V138.3H13.3821ZM78.4802 138.3V93.6107H294.623V138.3H78.4802ZM349.69 138.3H298.099V93.6107H349.69V138.3Z" fill="black"/>
<path opacity="0.4" d="M353.167 90.2268H298.099C298.064 89.7946 297.865 89.3915 297.543 89.0976C297.221 88.8036 296.799 88.6404 296.361 88.6404C295.923 88.6404 295.501 88.8036 295.179 89.0976C294.857 89.3915 294.658 89.7946 294.623 90.2268H78.5258C78.4464 89.8359 78.2327 89.4843 77.921 89.2317C77.6093 88.9791 77.2189 88.8411 76.816 88.8411C76.4131 88.8411 76.0227 88.9791 75.711 89.2317C75.3993 89.4843 75.1856 89.8359 75.1062 90.2268H9.90552V141.684H75.0036C75.083 142.075 75.2967 142.427 75.6084 142.679C75.9201 142.932 76.3105 143.07 76.7134 143.07C77.1163 143.07 77.5068 142.932 77.8184 142.679C78.1301 142.427 78.3438 142.075 78.4232 141.684H294.623C294.658 142.116 294.857 142.519 295.179 142.813C295.501 143.107 295.923 143.27 296.361 143.27C296.799 143.27 297.221 143.107 297.543 142.813C297.865 142.519 298.064 142.116 298.099 141.684H353.167V90.2268ZM13.3821 138.3V93.6107H75.0036V138.3H13.3821ZM78.4802 138.3V93.6107H294.623V138.3H78.4802ZM349.69 138.3H298.099V93.6107H349.69V138.3Z" fill="white"/>
<path d="M11.5583 226.777C10.9537 226.777 10.3738 226.539 9.94628 226.116C9.51875 225.693 9.27856 225.119 9.27856 224.521V75.5069C9.27856 74.9086 9.51875 74.3348 9.94628 73.9118C10.3738 73.4887 10.9537 73.251 11.5583 73.251C12.1629 73.251 12.7428 73.4887 13.1703 73.9118C13.5979 74.3348 13.8381 74.9086 13.8381 75.5069V224.521C13.8381 225.119 13.5979 225.693 13.1703 226.116C12.7428 226.539 12.1629 226.777 11.5583 226.777Z" fill="black"/>
<g opacity="0.2">
<path d="M11.5583 226.777C10.9537 226.777 10.3738 226.539 9.94628 226.116C9.51875 225.693 9.27856 225.119 9.27856 224.521V75.5069C9.27856 74.9086 9.51875 74.3348 9.94628 73.9118C10.3738 73.4887 10.9537 73.251 11.5583 73.251C12.1629 73.251 12.7428 73.4887 13.1703 73.9118C13.5979 74.3348 13.8381 74.9086 13.8381 75.5069V224.521C13.8381 225.119 13.5979 225.693 13.1703 226.116C12.7428 226.539 12.1629 226.777 11.5583 226.777Z" fill="white"/>
</g>
<path d="M437.586 225.164C436.981 225.164 436.401 224.926 435.974 224.503C435.546 224.08 435.306 223.507 435.306 222.908V75.5069C435.306 74.9086 435.546 74.3348 435.974 73.9118C436.401 73.4887 436.981 73.251 437.586 73.251C438.191 73.251 438.77 73.4887 439.198 73.9118C439.625 74.3348 439.866 74.9086 439.866 75.5069V222.931C439.86 223.525 439.617 224.093 439.19 224.511C438.763 224.93 438.187 225.164 437.586 225.164Z" fill="black"/>
<path d="M437.734 219.705H12.6299V229.371H437.734V219.705Z" fill="#263238"/>
<path d="M97.9036 226.777H11.5583C10.9537 226.777 10.3738 226.539 9.94628 226.116C9.51875 225.693 9.27856 225.12 9.27856 224.521C9.27856 223.923 9.51875 223.349 9.94628 222.926C10.3738 222.503 10.9537 222.265 11.5583 222.265H97.9036C98.5082 222.265 99.0881 222.503 99.5156 222.926C99.9432 223.349 100.183 223.923 100.183 224.521C100.183 225.12 99.9432 225.693 99.5156 226.116C99.0881 226.539 98.5082 226.777 97.9036 226.777Z" fill="black"/>
<path d="M97.9036 265.895H11.5583C10.9537 265.895 10.3738 265.657 9.94628 265.234C9.51875 264.811 9.27856 264.237 9.27856 263.639C9.27856 263.04 9.51875 262.467 9.94628 262.044C10.3738 261.621 10.9537 261.383 11.5583 261.383H97.9036C98.5082 261.383 99.0881 261.621 99.5156 262.044C99.9432 262.467 100.183 263.04 100.183 263.639C100.183 264.237 99.9432 264.811 99.5156 265.234C99.0881 265.657 98.5082 265.895 97.9036 265.895Z" fill="black"/>
<path d="M97.9036 305.001H11.5583C10.9537 305.001 10.3738 304.763 9.94628 304.34C9.51875 303.917 9.27856 303.343 9.27856 302.745C9.27856 302.147 9.51875 301.573 9.94628 301.15C10.3738 300.727 10.9537 300.489 11.5583 300.489H97.9036C98.5082 300.489 99.0881 300.727 99.5156 301.15C99.9432 301.573 100.183 302.147 100.183 302.745C100.183 303.343 99.9432 303.917 99.5156 304.34C99.0881 304.763 98.5082 305.001 97.9036 305.001Z" fill="black"/>
<path d="M97.9036 344.118H11.5583C10.9537 344.118 10.3738 343.881 9.94628 343.458C9.51875 343.035 9.27856 342.461 9.27856 341.863C9.27856 341.264 9.51875 340.69 9.94628 340.267C10.3738 339.844 10.9537 339.607 11.5583 339.607H97.9036C98.5082 339.607 99.0881 339.844 99.5156 340.267C99.9432 340.69 100.183 341.264 100.183 341.863C100.183 342.461 99.9432 343.035 99.5156 343.458C99.0881 343.881 98.5082 344.118 97.9036 344.118Z" fill="black"/>
<path d="M97.9036 383.236H11.5583C10.9537 383.236 10.3738 382.998 9.94628 382.575C9.51875 382.152 9.27856 381.578 9.27856 380.98C9.27856 380.382 9.51875 379.808 9.94628 379.385C10.3738 378.962 10.9537 378.724 11.5583 378.724H97.9036C98.5082 378.724 99.0881 378.962 99.5156 379.385C99.9432 379.808 100.183 380.382 100.183 380.98C100.183 381.578 99.9432 382.152 99.5156 382.575C99.0881 382.998 98.5082 383.236 97.9036 383.236Z" fill="black"/>
<path d="M97.9035 392.113C97.2989 392.113 96.719 391.875 96.2915 391.452C95.864 391.029 95.6238 390.455 95.6238 389.857V220.776C95.6238 220.178 95.864 219.604 96.2915 219.181C96.719 218.758 97.2989 218.521 97.9035 218.521C98.5081 218.521 99.088 218.758 99.5155 219.181C99.9431 219.604 100.183 220.178 100.183 220.776V389.857C100.183 390.455 99.9431 391.029 99.5155 391.452C99.088 391.875 98.5081 392.113 97.9035 392.113Z" fill="black"/>
<path d="M97.9039 84.4404H13.8383C13.2337 84.4404 12.6538 84.2027 12.2263 83.7796C11.7988 83.3565 11.5586 82.7827 11.5586 82.1844C11.5586 81.5861 11.7988 81.0123 12.2263 80.5893C12.6538 80.1662 13.2337 79.9285 13.8383 79.9285H97.9039C98.5085 79.9285 99.0884 80.1662 99.5159 80.5893C99.9434 81.0123 100.184 81.5861 100.184 82.1844C100.184 82.7827 99.9434 83.3565 99.5159 83.7796C99.0884 84.2027 98.5085 84.4404 97.9039 84.4404Z" fill="black"/>
<path d="M97.9036 153.595H12.6298C12.0252 153.595 11.4454 153.358 11.0178 152.935C10.5903 152.512 10.3501 151.938 10.3501 151.339C10.3501 150.741 10.5903 150.167 11.0178 149.744C11.4454 149.321 12.0252 149.084 12.6298 149.084H97.9036C98.5083 149.084 99.0881 149.321 99.5157 149.744C99.9432 150.167 100.183 150.741 100.183 151.339C100.183 151.938 99.9432 152.512 99.5157 152.935C99.0881 153.358 98.5083 153.595 97.9036 153.595Z" fill="black"/>
<path d="M97.9035 236.805C97.2989 236.805 96.719 236.567 96.2915 236.144C95.864 235.721 95.6238 235.147 95.6238 234.549V75.5069C95.6238 74.9086 95.864 74.3348 96.2915 73.9118C96.719 73.4887 97.2989 73.251 97.9035 73.251C98.5081 73.251 99.088 73.4887 99.5155 73.9118C99.9431 74.3348 100.183 74.9086 100.183 75.5069V234.549C100.183 235.147 99.9431 235.721 99.5155 236.144C99.088 236.567 98.5081 236.805 97.9035 236.805Z" fill="black"/>
<path d="M437.585 383.236C437.325 383.24 437.067 383.198 436.821 383.112L96.4558 264.361C96.1641 264.27 95.8939 264.121 95.6613 263.925C95.4286 263.728 95.2383 263.488 95.1017 263.217C94.9651 262.946 94.8849 262.651 94.866 262.349C94.847 262.047 94.8897 261.744 94.9914 261.459C95.0932 261.173 95.2519 260.911 95.4582 260.687C95.6645 260.464 95.9142 260.284 96.1922 260.158C96.4703 260.032 96.7712 259.963 97.0769 259.954C97.3827 259.946 97.687 259.998 97.9718 260.108L438.303 378.859C438.805 379.04 439.228 379.389 439.496 379.845C439.765 380.302 439.863 380.837 439.773 381.358C439.684 381.879 439.412 382.353 439.006 382.696C438.6 383.039 438.085 383.23 437.551 383.236H437.585Z" fill="black"/>
<path d="M97.9038 383.236C97.3679 383.235 96.8493 383.048 96.4391 382.707C96.029 382.365 95.7535 381.892 95.6609 381.369C95.5684 380.847 95.6648 380.309 95.9333 379.85C96.2017 379.391 96.6249 379.04 97.1287 378.859L436.263 258.033C436.829 257.829 437.453 257.854 438 258.103C438.546 258.352 438.971 258.806 439.181 259.364C439.383 259.925 439.353 260.542 439.096 261.081C438.84 261.62 438.379 262.036 437.814 262.24L98.6447 383.112C98.4064 383.194 98.156 383.235 97.9038 383.236Z" fill="black"/>
<g opacity="0.1">
<path d="M97.9038 383.236C97.3679 383.235 96.8493 383.048 96.4391 382.707C96.029 382.365 95.7535 381.892 95.6609 381.369C95.5684 380.847 95.6648 380.309 95.9333 379.85C96.2017 379.391 96.6249 379.04 97.1287 378.859L436.263 258.033C436.829 257.829 437.453 257.854 438 258.103C438.546 258.352 438.971 258.806 439.181 259.364C439.383 259.925 439.353 260.542 439.096 261.081C438.84 261.62 438.379 262.036 437.814 262.24L98.6447 383.112C98.4064 383.194 98.156 383.235 97.9038 383.236Z" fill="white"/>
</g>
<path opacity="0.1" d="M130.31 26.3168C130.31 26.6135 130.221 26.9035 130.055 27.1502C129.888 27.3969 129.652 27.5892 129.374 27.7028C129.097 27.8163 128.793 27.846 128.499 27.7881C128.204 27.7302 127.934 27.5874 127.722 27.3776C127.51 27.1678 127.366 26.9004 127.307 26.6094C127.249 26.3184 127.279 26.0168 127.394 25.7427C127.508 25.4686 127.703 25.2343 127.952 25.0694C128.201 24.9046 128.495 24.8166 128.794 24.8166C129.196 24.8195 129.579 24.9785 129.863 25.2592C130.147 25.5399 130.307 25.9198 130.31 26.3168Z" fill="white"/>
<path d="M164.62 143.951C164.015 143.951 163.436 143.714 163.008 143.291C162.581 142.868 162.34 142.294 162.34 141.695V90.2268C162.34 89.6285 162.581 89.0547 163.008 88.6316C163.436 88.2085 164.015 87.9709 164.62 87.9709C165.225 87.9709 165.805 88.2085 166.232 88.6316C166.66 89.0547 166.9 89.6285 166.9 90.2268V141.695C166.9 142.294 166.66 142.868 166.232 143.291C165.805 143.714 165.225 143.951 164.62 143.951Z" fill="black"/>
<path d="M379.133 143.951C378.528 143.951 377.948 143.714 377.521 143.291C377.093 142.868 376.853 142.294 376.853 141.695V90.2268C376.853 89.6285 377.093 89.0547 377.521 88.6316C377.948 88.2085 378.528 87.9709 379.133 87.9709C379.737 87.9709 380.317 88.2085 380.745 88.6316C381.172 89.0547 381.413 89.6285 381.413 90.2268V141.695C381.413 142.294 381.172 142.868 380.745 143.291C380.317 143.714 379.737 143.951 379.133 143.951Z" fill="black"/>
<path d="M435.044 90.2268V141.684H100.776V90.2268H435.044ZM435.044 85.715H100.776C99.567 85.715 98.4073 86.1903 97.5522 87.0364C96.6972 87.8826 96.2168 89.0302 96.2168 90.2268V141.684C96.2168 142.881 96.6972 144.028 97.5522 144.874C98.4073 145.721 99.567 146.196 100.776 146.196H435.044C436.253 146.196 437.413 145.721 438.268 144.874C439.123 144.028 439.603 142.881 439.603 141.684V90.2268C439.603 89.0302 439.123 87.8826 438.268 87.0364C437.413 86.1903 436.253 85.715 435.044 85.715Z" fill="black"/>
</svg>
