<!-- Generated by IcoMoon.io -->
<svg version="1.1" xmlns="http://www.w3.org/2000/svg" width="1306" height="1024" viewBox="0 0 1306 1024">
<g id="icomoon-ignore">
</g>
<path fill="#000" d="M121.004 246.021h-121.004v-105.221h357.752v105.221h-121.005v631.327h-115.743v-631.327z"></path>
<path fill="#000" d="M346.344 140.8h111.359l51.734 566.441h2.63l54.364-566.441h126.266l54.364 566.441h1.754l51.734-566.441h99.96l-74.532 736.548h-143.802l-52.611-496.293h-2.63l-52.611 496.293h-153.448l-74.532-736.548z"></path>
<path fill="#000" d="M800.547 140.8h116.621l76.285 571.702h1.754l75.409-571.702h106.098l-111.36 736.548h-153.448l-111.359-736.548z"></path>
<path fill="#000" d="M0 0h1305.6l-120.626 102.4h-1184.974v-102.4z"></path>
<path fill="#000" d="M1177.6 921.6h-1177.6l108.8 102.4h1068.8v-102.4z"></path>
</svg>
