<svg width="37" height="37" viewBox="0 0 37 37" fill="none" xmlns="http://www.w3.org/2000/svg">
<path id="Icon" d="M34.7501 26.495V31.37C34.7519 31.8225 34.6592 32.2705 34.4779 32.6852C34.2966 33.0998 34.0307 33.4721 33.6972 33.778C33.3637 34.084 32.97 34.3169 32.5413 34.4619C32.1126 34.6069 31.6583 34.6607 31.2076 34.62C26.2072 34.0766 21.4039 32.368 17.1838 29.6312C13.2575 27.1363 9.92875 23.8075 7.43382 19.8812C4.68754 15.6419 2.97847 10.8153 2.44507 5.79247C2.40447 5.34311 2.45787 4.89021 2.60189 4.46261C2.7459 4.03502 2.97738 3.64209 3.28157 3.30886C3.58576 2.97562 3.95601 2.70938 4.36873 2.52707C4.78146 2.34477 5.22763 2.2504 5.67882 2.24997H10.5538C11.3424 2.24221 12.107 2.52148 12.7049 3.03572C13.3029 3.54995 13.6934 4.26408 13.8038 5.04497C14.0096 6.60508 14.3912 8.13691 14.9413 9.61122C15.16 10.1929 15.2073 10.825 15.0777 11.4327C14.9481 12.0403 14.647 12.5982 14.2101 13.04L12.1463 15.1037C14.4596 19.172 17.8281 22.5404 21.8963 24.8537L23.9601 22.79C24.4019 22.3531 24.9597 22.052 25.5674 21.9224C26.1751 21.7928 26.8072 21.8401 27.3888 22.0587C28.8631 22.6089 30.395 22.9905 31.9551 23.1962C32.7444 23.3076 33.4654 23.7052 33.9807 24.3134C34.496 24.9216 34.7698 25.698 34.7501 26.495Z" stroke="#101828" stroke-width="3" stroke-linecap="round" stroke-linejoin="round"/>
</svg>
