<svg width="39" height="37" viewBox="0 0 39 37" fill="none" xmlns="http://www.w3.org/2000/svg">
<path id="Vector" d="M20.9501 2.67298L25.2618 11.1655C25.3598 11.3811 25.5141 11.5678 25.7092 11.7071C25.9043 11.8463 26.1333 11.9333 26.3736 11.9592L35.8918 13.335C36.1674 13.3695 36.4272 13.4799 36.6409 13.6531C36.8546 13.8264 37.0134 14.0554 37.0987 14.3134C37.184 14.5714 37.1923 14.8477 37.1227 15.1101C37.053 15.3726 36.9082 15.6103 36.7053 15.7954L29.8446 22.436C29.6695 22.5956 29.5381 22.7954 29.4623 23.0172C29.3865 23.239 29.3688 23.4757 29.4107 23.7059L31.0649 33.0451C31.1128 33.3134 31.0825 33.5895 30.9775 33.8419C30.8725 34.0943 30.697 34.3129 30.471 34.4728C30.2449 34.6326 29.9774 34.7274 29.6989 34.7463C29.4204 34.7652 29.142 34.7074 28.8955 34.5795L20.3264 30.1613C20.107 30.0562 19.8658 30.0016 19.6214 30.0016C19.3769 30.0016 19.1358 30.0562 18.9163 30.1613L10.3473 34.5795C10.1007 34.7074 9.82236 34.7652 9.54384 34.7463C9.26532 34.7274 8.99782 34.6326 8.77178 34.4728C8.54574 34.3129 8.37024 34.0943 8.26525 33.8419C8.16025 33.5895 8.12998 33.3134 8.17787 33.0451L9.83203 23.6001C9.87395 23.3699 9.85622 23.1332 9.78044 22.9114C9.70466 22.6896 9.57325 22.4898 9.39815 22.3302L2.45612 15.7954C2.25074 15.6052 2.10631 15.3609 2.04031 15.0922C1.97432 14.8236 1.9896 14.542 2.08431 14.2816C2.17901 14.0212 2.34907 13.7932 2.57389 13.6252C2.79871 13.4572 3.06864 13.3563 3.35099 13.335L12.8692 11.9592C13.1094 11.9333 13.3385 11.8463 13.5336 11.7071C13.7287 11.5678 13.8829 11.3811 13.981 11.1655L18.2926 2.67298C18.41 2.42564 18.5975 2.21623 18.833 2.06947C19.0684 1.92271 19.342 1.84473 19.6214 1.84473C19.9008 1.84473 20.1743 1.92271 20.4098 2.06947C20.6452 2.21623 20.8327 2.42564 20.9501 2.67298Z" fill="#FEC84B" stroke="#FEC84B" stroke-width="3" stroke-linecap="round" stroke-linejoin="round"/>
</svg>
